bicep_curl
version=1
nRows=260
nColumns=3
inDegrees=yes

# SIMM Motion File Header:
name bicep_curl
datacolumns 3
datarows 260
otherdata 1
range 0.0000 0.2590
endheader
time	/jointset/r_shoulder/r_shoulder_elev/value	/jointset/r_elbow/r_elbow_flex/value
0.0000	0.0000	132.7200
0.0010	0.0000	132.4883
0.0020	0.0000	132.2580
0.0030	0.0000	132.0291
0.0040	0.0000	131.8016
0.0050	0.0000	131.5755
0.0060	0.0000	131.3508
0.0070	0.0000	131.1275
0.0080	0.0000	130.9056
0.0090	0.0000	130.6851
0.0100	0.0000	130.4661
0.0110	0.0000	130.2484
0.0120	0.0000	130.0322
0.0130	0.0000	129.8173
0.0140	0.0000	129.6039
0.0150	0.0000	129.3919
0.0160	0.0000	129.1813
0.0170	0.0000	128.9721
0.0180	0.0000	128.7643
0.0190	0.0000	128.5579
0.0200	0.0000	128.3529
0.0210	0.0000	128.1493
0.0220	0.0000	127.9471
0.0230	0.0000	127.7463
0.0240	0.0000	127.5470
0.0250	0.0000	127.3490
0.0260	0.0000	127.1525
0.0270	0.0000	126.9573
0.0280	0.0000	126.7636
0.0290	0.0000	126.5713
0.0300	0.0000	126.3803
0.0310	0.0000	126.1908
0.0320	0.0000	126.0027
0.0330	0.0000	125.8160
0.0340	0.0000	125.6307
0.0350	0.0000	125.4468
0.0360	0.0000	125.2644
0.0370	0.0000	125.0833
0.0380	0.0000	124.9036
0.0390	0.0000	124.7254
0.0400	0.0000	124.5485
0.0410	0.0000	124.3731
0.0420	0.0000	124.1990
0.0430	0.0000	124.0264
0.0440	0.0000	123.8552
0.0450	0.0000	123.6853
0.0460	0.0000	123.5169
0.0470	0.0000	123.3499
0.0480	0.0000	123.1843
0.0490	0.0000	123.0201
0.0500	0.0000	122.8574
0.0510	0.0000	122.6960
0.0520	0.0000	122.5360
0.0530	0.0000	122.3774
0.0540	0.0000	122.2203
0.0550	0.0000	122.0645
0.0560	0.0000	121.9102
0.0570	0.0000	121.7573
0.0580	0.0000	121.6057
0.0590	0.0000	121.4556
0.0600	0.0000	121.3069
0.0610	0.0000	121.1596
0.0620	0.0000	121.0137
0.0630	0.0000	120.8692
0.0640	0.0000	120.7261
0.0650	0.0000	120.5844
0.0660	0.0000	120.4442
0.0670	0.0000	120.3053
0.0680	0.0000	120.1678
0.0690	0.0000	120.0318
0.0700	0.0000	119.8971
0.0710	0.0000	119.7639
0.0720	0.0000	119.6321
0.0730	0.0000	119.5017
0.0740	0.0000	119.3726
0.0750	0.0000	119.2450
0.0760	0.0000	119.1188
0.0770	0.0000	118.9940
0.0780	0.0000	118.8706
0.0790	0.0000	118.7487
0.0800	0.0000	118.6281
0.0810	0.0000	118.5089
0.0820	0.0000	118.3912
0.0830	0.0000	118.2748
0.0840	0.0000	118.1599
0.0850	0.0000	118.0463
0.0860	0.0000	117.9342
0.0870	0.0000	117.8235
0.0880	0.0000	117.7141
0.0890	0.0000	117.6062
0.0900	0.0000	117.4997
0.0910	0.0000	117.3946
0.0920	0.0000	117.2909
0.0930	0.0000	117.1886
0.0940	0.0000	117.0878
0.0950	0.0000	116.9883
0.0960	0.0000	116.8902
0.0970	0.0000	116.7936
0.0980	0.0000	116.6983
0.0990	0.0000	116.6045
0.1000	0.0000	116.5120
0.1010	0.0000	116.4210
0.1020	0.0000	116.3314
0.1030	0.0000	116.2432
0.1040	0.0000	116.1564
0.1050	0.0000	116.0710
0.1060	0.0000	115.9870
0.1070	0.0000	115.9044
0.1080	0.0000	115.8232
0.1090	0.0000	115.7434
0.1100	0.0000	115.6650
0.1110	0.0000	115.5881
0.1120	0.0000	115.5125
0.1130	0.0000	115.4384
0.1140	0.0000	115.3656
0.1150	0.0000	115.2943
0.1160	0.0000	115.2244
0.1170	0.0000	115.1559
0.1180	0.0000	115.0888
0.1190	0.0000	115.0231
0.1200	0.0000	114.9588
0.1210	0.0000	114.8959
0.1220	0.0000	114.8344
0.1230	0.0000	114.7743
0.1240	0.0000	114.7156
0.1250	0.0000	114.6584
0.1260	0.0000	114.6025
0.1270	0.0000	114.5481
0.1280	0.0000	114.4950
0.1290	0.0000	114.4434
0.1300	0.0000	114.3932
0.1310	0.0000	114.3443
0.1320	0.0000	114.2969
0.1330	0.0000	114.2509
0.1340	0.0000	114.2063
0.1350	0.0000	114.1631
0.1360	0.0000	114.1213
0.1370	0.0000	114.0809
0.1380	0.0000	114.0420
0.1390	0.0000	114.0044
0.1400	0.0000	113.9682
0.1410	0.0000	113.9335
0.1420	0.0000	113.9001
0.1430	0.0000	113.8682
0.1440	0.0000	113.8377
0.1450	0.0000	113.8086
0.1460	0.0000	113.7808
0.1470	0.0000	113.7545
0.1480	0.0000	113.7296
0.1490	0.0000	113.7061
0.1500	0.0000	113.6840
0.1510	0.0000	113.6634
0.1520	0.0000	113.6441
0.1530	0.0000	113.6262
0.1540	0.0000	113.6097
0.1550	0.0000	113.5947
0.1560	0.0000	113.5810
0.1570	0.0000	113.5688
0.1580	0.0000	113.5580
0.1590	0.0000	113.5485
0.1600	0.0000	113.5405
0.1610	0.0000	113.5339
0.1620	0.0000	113.5287
0.1630	0.0000	113.5249
0.1640	0.0000	113.5225
0.1650	0.0000	113.5215
0.1660	0.0000	113.5219
0.1670	0.0000	113.5238
0.1680	0.0000	113.5270
0.1690	0.0000	113.5316
0.1700	0.0000	113.5377
0.1710	0.0000	113.5451
0.1720	0.0000	113.5540
0.1730	0.0000	113.5643
0.1740	0.0000	113.5759
0.1750	0.0000	113.5890
0.1760	0.0000	113.6035
0.1770	0.0000	113.6194
0.1780	0.0000	113.6367
0.1790	0.0000	113.6554
0.1800	0.0000	113.6755
0.1810	0.0000	113.6971
0.1820	0.0000	113.7200
0.1830	0.0000	113.7443
0.1840	0.0000	113.7701
0.1850	0.0000	113.7972
0.1860	0.0000	113.8258
0.1870	0.0000	113.8558
0.1880	0.0000	113.8871
0.1890	0.0000	113.9199
0.1900	0.0000	113.9541
0.1910	0.0000	113.9897
0.1920	0.0000	114.0267
0.1930	0.0000	114.0651
0.1940	0.0000	114.1049
0.1950	0.0000	114.1461
0.1960	0.0000	114.1888
0.1970	0.0000	114.2328
0.1980	0.0000	114.2783
0.1990	0.0000	114.3251
0.2000	0.0000	114.3734
0.2010	0.0000	114.4230
0.2020	0.0000	114.4741
0.2030	0.0000	114.5266
0.2040	0.0000	114.5804
0.2050	0.0000	114.6357
0.2060	0.0000	114.6924
0.2070	0.0000	114.7505
0.2080	0.0000	114.8101
0.2090	0.0000	114.8710
0.2100	0.0000	114.9333
0.2110	0.0000	114.9970
0.2120	0.0000	115.0622
0.2130	0.0000	115.1287
0.2140	0.0000	115.1967
0.2150	0.0000	115.2660
0.2160	0.0000	115.3368
0.2170	0.0000	115.4090
0.2180	0.0000	115.4826
0.2190	0.0000	115.5575
0.2200	0.0000	115.6339
0.2210	0.0000	115.7117
0.2220	0.0000	115.7909
0.2230	0.0000	115.8716
0.2240	0.0000	115.9536
0.2250	0.0000	116.0370
0.2260	0.0000	116.1218
0.2270	0.0000	116.2081
0.2280	0.0000	116.2957
0.2290	0.0000	116.3848
0.2300	0.0000	116.4753
0.2310	0.0000	116.5671
0.2320	0.0000	116.6604
0.2330	0.0000	116.7551
0.2340	0.0000	116.8512
0.2350	0.0000	116.9487
0.2360	0.0000	117.0476
0.2370	0.0000	117.1479
0.2380	0.0000	117.2496
0.2390	0.0000	117.3528
0.2400	0.0000	117.4573
0.2410	0.0000	117.5632
0.2420	0.0000	117.6706
0.2430	0.0000	117.7793
0.2440	0.0000	117.8895
0.2450	0.0000	118.0011
0.2460	0.0000	118.1140
0.2470	0.0000	118.2284
0.2480	0.0000	118.3442
0.2490	0.0000	118.4614
0.2500	0.0000	118.5800
0.2510	0.0000	118.5906
0.2520	0.0000	118.6013
0.2530	0.0000	118.6119
0.2540	0.0000	118.6226
0.2550	0.0000	118.6332
0.2560	0.0000	118.6438
0.2570	0.0000	118.6545
0.2580	0.0000	118.6651
0.2590	0.0000	118.6758
